# xmcd
#
# Track frame offsets:
# 150
# 16382
# 36027
# 59427
# 83590
# 99297
# 116540
# 133392
# 163265
# 184007
# 203595
# 223572
# 241795
#
# Disc length: 3454 seconds
#
# Revision: 0
# Processed by: cddbd v1.4PL0 Copyright (c) Steve Scherf et al.
# Submitted via: Audion 3.0.2 (http://www.panic.com/audion/)
#
DISCID=a90d7c0d
DTITLE=Artisti vari - Radici
DYEAR=1900
DGENRE=
TTITLE0=Yallala ilali
TTITLE1=Spiranza
TTITLE2=Jatt ho giya sharabee
TTITLE3=Hana-hana
TTITLE4=Sule de iernu
TTITLE5=Mane e mane(kelendi-kelendi9
TTITLE6=Taranta power
TTITLE7=Istanbul uyurken
TTITLE8=Tarantella calabrese
TTITLE9=Oyfn pripetshik
TTITLE10=Ebla
TTITLE11=Blue indians
TTITLE12=Pata pata 2000
EXTD=
EXTT0=
EXTT1=
EXTT2=
EXTT3=
EXTT4=
EXTT5=
EXTT6=
EXTT7=
EXTT8=
EXTT9=
EXTT10=
EXTT11=
EXTT12=
PLAYORDER=
